<svg width="50" height="51" viewBox="0 0 50 51" fill="none" xmlns="http://www.w3.org/2000/svg">
<path d="M20.1422 2.21092L1.34706 21.5794C-0.838906 24.3482 0.118757 28.2451 0.870834 29.8474L14.9536 44.3497C16.5052 46.1592 20.208 49.9683 22.6064 50.7291C28.208 51.7197 29.6281 48.7875 29.5886 48.8272C29.5492 48.8668 18.9772 39.7533 17.3993 38.3269C17.2416 37.471 17.9911 37.4156 18.3855 37.4948C22.0147 40.6251 29.6123 47.1471 30.9693 48.1932C33.2415 46.735 34.7563 44.6006 35.2296 43.7157C31.1587 40.237 22.9393 33.1965 22.6293 32.8637C22.0843 32.1551 22.7916 31.907 23.2134 31.8714C26.5226 34.6968 33.8076 40.8462 36.4739 42.8406C39.1402 40.7893 40.4214 38.8993 40.7287 38.2108C37.1358 34.8393 29.6948 27.8826 28.6736 27.0279C27.766 25.9452 28.7209 25.817 29.3118 25.8882L41.9342 37.4273C43.3051 36.2876 46.0471 33.7661 46.0471 32.7974C43.707 28.9511 34.843 20.7598 33.1411 19.5489C31.4392 18.338 28.8864 18.5517 28.1063 18.5517C27.4823 18.5517 26.4281 19.5489 25.979 20.0475C24.9626 21.2109 22.3723 23.552 20.1422 23.6089C17.3547 23.6802 14.7749 21.5794 15.1294 20.0475C17.4695 19.1215 19.526 15.4889 20.1422 14.4917C20.7584 13.4945 21.5115 12.0699 23.4261 9.79059C24.9578 7.96714 32.0538 7.74871 35.4103 7.86742C34.9479 7.2741 33.2513 5.38716 30.1639 2.58603C27.0764 -0.215089 22.1963 1.16882 20.1422 2.21092Z" fill="#17395C"/>
<path d="M21.9256 13.8827C21.1979 16.1667 17.9636 19.3899 16.4375 20.716C17.4426 22.9029 21.0919 22.2012 21.7246 22.06C22.3574 21.9188 24.2556 20.2945 26.3295 18.0701C29.212 16.7283 31.3563 17.4698 33.2019 18.25C38.3701 20.5924 44.4221 28.2765 46.8021 31.8257C46.8021 31.8257 47.0433 31.9886 47.4936 31.8257C52.0329 26.7269 49.385 21.6934 47.4936 19.8141L37.2361 9.50512C36.9203 9.35286 35.1897 9.04074 30.7936 9.01029C25.2986 8.97222 22.8353 11.0278 21.9256 13.8827Z" fill="#F7AD2A"/>
</svg>
